<?xml version="1.0" standalone="no"?>
<!DOCTYPE svg PUBLIC "-//W3C//DTD SVG 20010904//EN"
 "http://www.w3.org/TR/2001/REC-SVG-20010904/DTD/svg10.dtd">
<svg version="1.0" xmlns="http://www.w3.org/2000/svg"
 width="512.000000pt" height="512.000000pt" viewBox="0 0 512.000000 512.000000"
 preserveAspectRatio="xMidYMid meet">
<metadata>
Created by potrace 1.14, written by Peter Selinger 2001-2017
</metadata>
<g transform="translate(0.000000,512.000000) scale(0.100000,-0.100000)"
fill="#000000" stroke="none">
<path d="M3310 4616 c-41 -13 -127 -39 -190 -58 -664 -199 -870 -264 -870
-275 0 -7 4 -13 8 -13 5 0 14 -11 20 -25 34 -75 -116 -177 -323 -221 -11 -2
-91 -6 -178 -8 -87 -3 -179 -10 -206 -17 l-48 -12 81 -60 c44 -33 85 -63 89
-67 5 -4 -8 -17 -27 -28 l-36 -21 -105 78 c-59 44 -103 81 -98 84 12 8 123 44
153 51 41 9 129 16 250 21 146 5 181 11 249 41 89 40 133 93 111 134 -26 49
-17 51 -663 -145 -766 -234 -933 -284 -977 -297 -31 -9 -33 -12 -15 -19 16 -7
712 -202 944 -265 51 -14 55 -13 95 9 94 54 117 67 155 91 22 15 42 26 45 26
2 0 33 18 68 39 36 22 159 94 274 162 115 67 223 130 239 140 17 10 50 30 75
44 25 14 59 33 75 43 17 10 64 37 105 61 41 24 103 61 137 82 34 22 65 39 68
39 2 0 28 15 57 33 29 17 65 39 79 47 15 8 126 73 248 145 203 119 221 132
218 155 -5 33 -17 33 -107 6z"/>
<path d="M3610 4529 c-63 -38 -122 -72 -130 -76 -8 -4 -51 -28 -95 -54 -44
-26 -98 -57 -120 -69 -35 -20 -539 -310 -795 -458 -52 -30 -112 -65 -132 -78
-21 -13 -39 -24 -42 -24 -2 0 -70 -39 -152 -86 -82 -47 -231 -133 -331 -191
-101 -57 -185 -108 -188 -113 -4 -6 366 -545 491 -715 19 -26 139 -197 216
-308 49 -71 65 -87 87 -88 14 0 35 -2 46 -4 11 -2 54 -7 95 -10 41 -3 95 -7
120 -10 25 -2 74 -7 110 -10 36 -3 92 -7 125 -10 33 -3 80 -7 105 -10 25 -3
77 -7 115 -10 39 -3 88 -7 110 -10 43 -5 133 -13 230 -20 33 -3 87 -8 120 -11
135 -14 145 -14 146 10 1 29 1 567 0 1579 -1 466 -4 847 -8 846 -5 -1 -60 -32
-123 -70z m-518 -974 c173 -83 201 -219 92 -451 -74 -157 -188 -300 -277 -345
-60 -31 -131 -28 -210 9 -65 31 -130 92 -148 140 -36 95 27 303 143 468 142
202 251 251 400 179z"/>
<path d="M2935 3472 c-64 -39 -154 -166 -231 -326 -61 -125 -70 -205 -30 -253
32 -38 99 -66 137 -58 69 15 177 152 272 345 45 92 52 113 52 167 0 52 -4 66
-25 88 -49 54 -122 69 -175 37z"/>
<path d="M3889 4323 c-3 -15 -7 -461 -13 -1324 l-6 -875 231 -225 c127 -123
259 -250 293 -282 33 -32 100 -97 149 -144 48 -46 87 -83 87 -80 0 2 -21 91
-46 198 -38 160 -63 267 -99 419 -1 8 -14 65 -28 125 -44 190 -70 295 -74 291
-2 -2 -6 -14 -8 -26 -25 -131 -73 -161 -156 -98 -73 57 -126 180 -130 303 -3
91 0 106 32 136 l31 29 -22 29 c-34 49 -60 138 -60 210 0 112 38 137 127 84
41 -23 45 -24 39 -7 -5 18 -45 182 -51 214 -2 8 -13 56 -25 105 -12 50 -30
126 -40 170 -10 44 -35 150 -55 235 -20 85 -39 164 -41 175 -2 11 -6 29 -8 40
-2 11 -13 56 -24 100 -11 44 -26 108 -33 143 -11 59 -13 62 -40 62 -16 0 -30
-3 -30 -7z"/>
<path d="M574 3594 c6 -20 133 -541 140 -578 3 -11 17 -68 31 -126 28 -112 84
-345 90 -370 2 -8 8 -35 15 -60 6 -25 15 -63 20 -86 5 -22 21 -87 35 -145 15
-57 28 -111 30 -119 2 -8 13 -55 25 -105 12 -49 23 -97 25 -105 2 -8 30 -125
63 -260 33 -135 75 -306 92 -380 157 -656 176 -726 190 -700 21 39 43 77 109
188 33 57 61 106 61 108 0 2 11 21 24 42 13 20 86 145 162 277 75 132 235 409
354 615 120 206 222 385 229 397 10 21 -6 47 -180 295 -203 288 -612 872 -614
875 0 1 -25 9 -55 17 -30 8 -199 55 -375 104 -176 50 -348 97 -382 106 -34 9
-70 19 -79 23 -13 5 -15 2 -10 -13z m791 -833 c96 -38 145 -108 169 -243 6
-34 0 -38 -33 -27 -23 8 -29 18 -39 69 -31 148 -194 187 -231 55 -28 -103 9
-199 94 -239 28 -14 35 -23 35 -46 0 -27 -3 -30 -30 -30 -16 0 -40 -5 -54 -11
-75 -35 -58 -221 24 -264 65 -34 129 -9 145 58 8 29 9 30 43 21 38 -11 24 -89
-27 -154 -17 -22 -27 -25 -75 -24 -61 2 -112 27 -159 78 -52 57 -71 113 -69
204 1 76 26 113 82 127 l45 11 -41 27 c-61 41 -86 95 -91 197 -5 79 -3 89 24
140 42 80 86 92 188 51z"/>
<path d="M4120 3013 c-19 -24 -21 -36 -17 -89 9 -95 42 -149 104 -168 17 -5
29 -1 49 19 25 25 26 31 22 93 -6 80 -27 126 -71 152 -43 27 -62 25 -87 -7z"/>
<path d="M4143 2663 c-21 -32 -23 -128 -3 -189 37 -113 138 -161 171 -82 28
68 6 199 -43 259 -38 46 -99 52 -125 12z"/>
<path d="M2247 1888 c-80 -139 -203 -354 -275 -478 -71 -124 -220 -382 -331
-574 -110 -192 -199 -352 -196 -354 2 -3 100 23 217 57 117 34 220 64 228 65
8 2 166 48 350 101 664 192 715 207 730 210 8 2 38 11 65 19 28 7 122 34 210
60 88 25 174 50 190 55 17 5 228 67 470 136 242 69 471 135 508 146 l68 20
-55 52 c-29 29 -167 162 -306 297 -139 135 -270 262 -291 283 -25 23 -50 37
-67 38 -15 0 -34 2 -42 3 -8 2 -55 6 -105 10 -49 4 -103 9 -120 11 -37 5 -162
16 -232 20 -29 2 -76 6 -105 9 -29 3 -84 8 -123 11 -38 3 -90 8 -115 10 -25 3
-72 7 -105 10 -111 10 -180 16 -215 20 -19 2 -74 7 -121 10 l-86 7 -146 -254z
m1153 -238 c0 -39 -384 -209 -531 -235 -18 -3 -35 -7 -38 -9 -3 -2 -31 -7 -61
-11 -30 -5 -64 -9 -75 -11 -11 -1 -31 -3 -45 -3 l-25 -2 30 -25 c17 -15 46
-40 66 -58 19 -17 70 -60 112 -96 42 -35 77 -68 77 -72 0 -4 -16 -19 -35 -34
-40 -30 -24 -37 -125 51 -25 22 -73 63 -105 90 -33 28 -75 65 -95 83 l-35 32
33 28 c26 22 57 32 146 49 61 12 157 36 211 54 128 40 331 138 414 199 24 17
26 17 53 -3 15 -11 28 -24 28 -27z"/>
</g>
</svg>
